<svg version="1.1" id="Layer_1" xmlns="http://www.w3.org/2000/svg" xmlns:xlink="http://www.w3.org/1999/xlink" x="0px" y="0px"
	 width="100%" viewBox="0 0 500 500" enable-background="new 0 0 500 500" xml:space="preserve">
<path fill="#FFFFFF" opacity="1.000000" stroke="none" 
	d="
M278.000000,501.000000 
	C185.333359,501.000000 93.166710,501.000000 1.000049,501.000000 
	C1.000033,334.333405 1.000033,167.666794 1.000016,1.000139 
	C167.666565,1.000093 334.333130,1.000093 500.999756,1.000046 
	C500.999847,167.666519 500.999847,334.333038 500.999939,500.999786 
	C426.833344,501.000000 352.666656,501.000000 278.000000,501.000000 
M94.500000,387.000732 
	C85.746552,387.000732 76.993103,387.000732 67.892250,387.000732 
	C67.892250,398.630310 67.897408,409.443390 67.890411,420.256470 
	C67.885872,427.275757 67.877930,427.279175 74.817421,427.279236 
	C192.134445,427.279938 309.451477,427.279755 426.768494,427.279724 
	C427.435059,427.279724 428.112366,427.201599 428.766479,427.291748 
	C432.812286,427.849365 434.344086,426.363098 434.197510,422.067474 
	C433.879425,412.745972 434.077148,403.406677 434.071167,394.074677 
	C434.066650,387.004333 434.071625,387.001251 426.953918,387.001190 
	C316.469269,387.000549 205.984634,387.000763 94.500000,387.000732 
M120.500000,339.994995 
	C111.005356,339.995361 101.507515,339.875092 92.019554,340.127197 
	C90.610703,340.164673 88.074768,341.924316 88.045891,342.943481 
	C87.750137,353.383118 87.864723,363.834381 87.864723,374.849213 
	C90.391823,374.849213 92.340591,374.849213 94.289360,374.849213 
	C190.736145,374.849213 287.182953,374.849213 383.629730,374.849213 
	C389.126709,374.849213 394.623688,374.860992 400.120636,374.846069 
	C406.483459,374.828827 406.753815,374.520935 406.715363,367.957275 
	C406.675354,361.128265 406.637726,354.298981 406.652618,347.469940 
	C406.668945,339.998688 406.695648,339.995544 399.345337,339.995483 
	C306.730225,339.994720 214.115112,339.994995 120.500000,339.994995 
M340.500000,330.002747 
	C352.997925,330.002747 365.498505,329.858490 377.992218,330.087830 
	C381.903229,330.159576 383.333435,329.092804 383.180756,325.048706 
	C382.898041,317.560608 383.079895,310.054382 383.094696,302.555756 
	C383.109314,295.159180 383.123718,295.154633 375.713989,295.154541 
	C289.394989,295.153442 203.075974,295.153809 116.756966,295.153839 
	C115.923767,295.153839 115.086891,295.205994 114.258011,295.146423 
	C110.508499,294.876953 108.847176,296.306427 108.984032,300.346283 
	C109.243408,308.002899 109.067558,315.674408 109.061752,323.339752 
	C109.056717,329.996246 109.050140,330.001801 115.537170,330.001892 
	C190.191452,330.003235 264.845734,330.002747 340.500000,330.002747 
M144.503082,255.142395 
	C140.506927,255.142517 136.500641,255.320633 132.517395,255.093964 
	C128.320755,254.855148 126.432365,256.209930 126.702698,260.752716 
	C127.048286,266.560150 126.835213,272.403473 126.790459,278.230774 
	C126.734016,285.579895 126.702461,285.586609 134.138596,285.586792 
	C208.069290,285.588501 282.000000,285.587860 355.930695,285.587219 
	C357.096222,285.587189 358.262451,285.550903 359.427185,285.578918 
	C362.517334,285.653137 363.926880,284.346436 363.836853,281.078491 
	C363.667236,274.922577 363.756348,268.758606 363.788391,262.598267 
	C363.827148,255.147629 363.849792,255.143234 356.304474,255.143112 
	C286.037018,255.141937 215.769547,255.142426 144.503082,255.142395 
M165.500061,245.165009 
	C215.300339,245.165009 265.100616,245.165009 314.900909,245.164963 
	C324.061493,245.164948 333.226440,245.000076 342.380554,245.243439 
	C346.179138,245.344437 347.317047,244.053070 347.143616,240.367432 
	C346.869904,234.550537 347.047272,228.711929 347.052155,222.882538 
	C347.057831,216.162140 347.066528,216.153992 340.107086,216.153748 
	C276.482666,216.151566 212.858276,216.152374 149.233871,216.152710 
	C148.234543,216.152725 147.235016,216.172516 146.235947,216.158035 
	C143.331726,216.115967 142.060745,217.449844 142.106247,220.435455 
	C142.212814,227.428909 142.180878,234.425888 142.097504,241.420151 
	C142.064224,244.211990 143.253525,245.251541 146.013123,245.199341 
	C152.173477,245.082764 158.337585,245.164261 165.500061,245.165009 
M207.499985,207.847305 
	C208.665344,207.847321 209.830704,207.847321 210.996063,207.847321 
	C249.286942,207.847290 287.578033,207.790100 325.868378,207.930695 
	C329.952698,207.945679 331.503662,206.911850 331.232117,202.654800 
	C330.872406,197.016312 330.930267,191.332031 331.161926,185.681915 
	C331.308136,182.115814 330.427948,180.786163 326.494812,180.796021 
	C277.551086,180.918747 228.606857,180.852509 179.662766,180.835617 
	C173.669403,180.833557 167.667526,181.030624 161.685669,180.768295 
	C157.655441,180.591568 156.465515,182.172775 156.655197,186.020340 
	C156.925354,191.500656 156.926392,197.013931 156.660217,202.494553 
	C156.461273,206.590820 157.814407,208.004044 162.050674,207.937271 
	C176.863907,207.703812 191.683060,207.847092 207.499985,207.847305 
M169.026047,168.151062 
	C168.404175,172.835953 171.506668,172.620621 174.695023,172.618301 
	C220.140961,172.585266 265.586945,172.595840 311.032898,172.595673 
	C312.031708,172.595657 313.031677,172.560806 314.029083,172.597733 
	C316.769165,172.699203 317.943115,171.417160 317.869781,168.667343 
	C317.750000,164.175583 317.746216,159.679352 317.769928,155.185425 
	C317.806854,148.187012 317.803192,148.140884 310.967804,148.139725 
	C281.502838,148.134720 252.037888,148.139206 222.572922,148.139526 
	C206.426682,148.139694 190.279922,148.206161 174.134552,148.087402 
	C170.365463,148.059662 168.636154,149.143036 168.930099,153.243500 
	C169.262573,157.881287 169.020126,162.560303 169.026047,168.151062 
M221.500015,119.832527 
	C209.507767,119.832573 197.511505,120.010223 185.525406,119.738838 
	C181.175705,119.640358 179.989655,121.252220 180.278305,125.265320 
	C180.552322,129.074921 180.499527,132.931290 180.268173,136.747543 
	C180.030014,140.675827 181.570587,141.968872 185.493591,141.922180 
	C200.481781,141.743835 215.473343,141.850281 230.463654,141.850235 
	C253.615341,141.850174 276.767761,141.756363 299.918060,141.935791 
	C304.108063,141.968277 305.595551,140.690231 305.253174,136.528793 
	C304.940155,132.723541 304.906830,128.848297 305.248566,125.048714 
	C305.627441,120.836205 304.084900,119.715813 299.949341,119.743950 
	C274.133881,119.919617 248.316666,119.832504 221.500015,119.832527 
M214.500031,94.998993 
	C209.668442,94.998993 204.836807,94.982529 200.005295,95.002335 
	C189.145752,95.046860 190.179428,93.872841 190.311523,104.452637 
	C190.326080,105.618340 190.422516,106.807129 190.241043,107.947006 
	C189.445557,112.943512 191.756134,114.118484 196.441666,114.089973 
	C224.930283,113.916611 253.420624,113.967644 281.910187,114.035133 
	C295.187134,114.066589 295.027679,114.155998 295.323059,100.957146 
	C295.423553,96.466354 294.230896,94.854485 289.472443,94.896896 
	C264.816620,95.116608 240.157791,94.999023 214.500031,94.998993 
M262.499969,73.958649 
	C241.420639,73.958649 220.341309,73.958649 198.959076,73.958649 
	C198.959076,78.416023 199.152924,82.077568 198.902985,85.708557 
	C198.666595,89.142700 200.173676,89.934631 203.297180,89.902985 
	C215.626724,89.778091 227.958282,89.852768 240.289093,89.852646 
	C253.952957,89.852501 267.618134,89.941170 281.279083,89.740082 
	C283.032684,89.714272 286.128052,88.361984 286.267212,87.314087 
	C286.838226,83.015030 286.505768,78.595978 286.505768,73.958633 
	C278.135834,73.958633 270.817871,73.958633 262.499969,73.958649 
z"/>
<path fill="#86EF00" opacity="1.000000" stroke="none" 
	d="
M95.000000,387.000732 
	C205.984634,387.000763 316.469269,387.000549 426.953918,387.001190 
	C434.071625,387.001251 434.066650,387.004333 434.071167,394.074677 
	C434.077148,403.406677 433.879425,412.745972 434.197510,422.067474 
	C434.344086,426.363098 432.812286,427.849365 428.766479,427.291748 
	C428.112366,427.201599 427.435059,427.279724 426.768494,427.279724 
	C309.451477,427.279755 192.134445,427.279938 74.817421,427.279236 
	C67.877930,427.279175 67.885872,427.275757 67.890411,420.256470 
	C67.897408,409.443390 67.892250,398.630310 67.892250,387.000732 
	C76.993103,387.000732 85.746552,387.000732 95.000000,387.000732 
z"/>
<path fill="#87EF03" opacity="1.000000" stroke="none" 
	d="
M121.000000,339.994995 
	C214.115112,339.994995 306.730225,339.994720 399.345337,339.995483 
	C406.695648,339.995544 406.668945,339.998688 406.652618,347.469940 
	C406.637726,354.298981 406.675354,361.128265 406.715363,367.957275 
	C406.753815,374.520935 406.483459,374.828827 400.120636,374.846069 
	C394.623688,374.860992 389.126709,374.849213 383.629730,374.849213 
	C287.182953,374.849213 190.736145,374.849213 94.289360,374.849213 
	C92.340591,374.849213 90.391823,374.849213 87.864723,374.849213 
	C87.864723,363.834381 87.750137,353.383118 88.045891,342.943481 
	C88.074768,341.924316 90.610703,340.164673 92.019554,340.127197 
	C101.507515,339.875092 111.005356,339.995361 121.000000,339.994995 
z"/>
<path fill="#87EF02" opacity="1.000000" stroke="none" 
	d="
M340.000000,330.002747 
	C264.845734,330.002747 190.191452,330.003235 115.537170,330.001892 
	C109.050140,330.001801 109.056717,329.996246 109.061752,323.339752 
	C109.067558,315.674408 109.243408,308.002899 108.984032,300.346283 
	C108.847176,296.306427 110.508499,294.876953 114.258011,295.146423 
	C115.086891,295.205994 115.923767,295.153839 116.756966,295.153839 
	C203.075974,295.153809 289.394989,295.153442 375.713989,295.154541 
	C383.123718,295.154633 383.109314,295.159180 383.094696,302.555756 
	C383.079895,310.054382 382.898041,317.560608 383.180756,325.048706 
	C383.333435,329.092804 381.903229,330.159576 377.992218,330.087830 
	C365.498505,329.858490 352.997925,330.002747 340.000000,330.002747 
z"/>
<path fill="#89EF06" opacity="1.000000" stroke="none" 
	d="
M145.002594,255.142426 
	C215.769547,255.142426 286.037018,255.141937 356.304474,255.143112 
	C363.849792,255.143234 363.827148,255.147629 363.788391,262.598267 
	C363.756348,268.758606 363.667236,274.922577 363.836853,281.078491 
	C363.926880,284.346436 362.517334,285.653137 359.427185,285.578918 
	C358.262451,285.550903 357.096222,285.587189 355.930695,285.587219 
	C282.000000,285.587860 208.069290,285.588501 134.138596,285.586792 
	C126.702461,285.586609 126.734016,285.579895 126.790459,278.230774 
	C126.835213,272.403473 127.048286,266.560150 126.702698,260.752716 
	C126.432365,256.209930 128.320755,254.855148 132.517395,255.093964 
	C136.500641,255.320633 140.506927,255.142517 145.002594,255.142426 
z"/>
<path fill="#87EF02" opacity="1.000000" stroke="none" 
	d="
M165.000107,245.165039 
	C158.337585,245.164261 152.173477,245.082764 146.013123,245.199341 
	C143.253525,245.251541 142.064224,244.211990 142.097504,241.420151 
	C142.180878,234.425888 142.212814,227.428909 142.106247,220.435455 
	C142.060745,217.449844 143.331726,216.115967 146.235947,216.158035 
	C147.235016,216.172516 148.234543,216.152725 149.233871,216.152710 
	C212.858276,216.152374 276.482666,216.151566 340.107086,216.153748 
	C347.066528,216.153992 347.057831,216.162140 347.052155,222.882538 
	C347.047272,228.711929 346.869904,234.550537 347.143616,240.367432 
	C347.317047,244.053070 346.179138,245.344437 342.380554,245.243439 
	C333.226440,245.000076 324.061493,245.164948 314.900909,245.164963 
	C265.100616,245.165009 215.300339,245.165009 165.000107,245.165039 
z"/>
<path fill="#87EF02" opacity="1.000000" stroke="none" 
	d="
M206.999969,207.847275 
	C191.683060,207.847092 176.863907,207.703812 162.050674,207.937271 
	C157.814407,208.004044 156.461273,206.590820 156.660217,202.494553 
	C156.926392,197.013931 156.925354,191.500656 156.655197,186.020340 
	C156.465515,182.172775 157.655441,180.591568 161.685669,180.768295 
	C167.667526,181.030624 173.669403,180.833557 179.662766,180.835617 
	C228.606857,180.852509 277.551086,180.918747 326.494812,180.796021 
	C330.427948,180.786163 331.308136,182.115814 331.161926,185.681915 
	C330.930267,191.332031 330.872406,197.016312 331.232117,202.654800 
	C331.503662,206.911850 329.952698,207.945679 325.868378,207.930695 
	C287.578033,207.790100 249.286942,207.847290 210.996063,207.847321 
	C209.830704,207.847321 208.665344,207.847321 206.999969,207.847275 
z"/>
<path fill="#8AF008" opacity="1.000000" stroke="none" 
	d="
M169.026855,167.686218 
	C169.020126,162.560303 169.262573,157.881287 168.930099,153.243500 
	C168.636154,149.143036 170.365463,148.059662 174.134552,148.087402 
	C190.279922,148.206161 206.426682,148.139694 222.572922,148.139526 
	C252.037888,148.139206 281.502838,148.134720 310.967804,148.139725 
	C317.803192,148.140884 317.806854,148.187012 317.769928,155.185425 
	C317.746216,159.679352 317.750000,164.175583 317.869781,168.667343 
	C317.943115,171.417160 316.769165,172.699203 314.029083,172.597733 
	C313.031677,172.560806 312.031708,172.595657 311.032898,172.595673 
	C265.586945,172.595840 220.140961,172.585266 174.695023,172.618301 
	C171.506668,172.620621 168.404175,172.835953 169.026855,167.686218 
z"/>
<path fill="#88EF03" opacity="1.000000" stroke="none" 
	d="
M222.000031,119.832489 
	C248.316666,119.832504 274.133881,119.919617 299.949341,119.743950 
	C304.084900,119.715813 305.627441,120.836205 305.248566,125.048714 
	C304.906830,128.848297 304.940155,132.723541 305.253174,136.528793 
	C305.595551,140.690231 304.108063,141.968277 299.918060,141.935791 
	C276.767761,141.756363 253.615341,141.850174 230.463654,141.850235 
	C215.473343,141.850281 200.481781,141.743835 185.493591,141.922180 
	C181.570587,141.968872 180.030014,140.675827 180.268173,136.747543 
	C180.499527,132.931290 180.552322,129.074921 180.278305,125.265320 
	C179.989655,121.252220 181.175705,119.640358 185.525406,119.738838 
	C197.511505,120.010223 209.507767,119.832573 222.000031,119.832489 
z"/>
<path fill="#86EF01" opacity="1.000000" stroke="none" 
	d="
M215.000015,94.998993 
	C240.157791,94.999023 264.816620,95.116608 289.472443,94.896896 
	C294.230896,94.854485 295.423553,96.466354 295.323059,100.957146 
	C295.027679,114.155998 295.187134,114.066589 281.910187,114.035133 
	C253.420624,113.967644 224.930283,113.916611 196.441666,114.089973 
	C191.756134,114.118484 189.445557,112.943512 190.241043,107.947006 
	C190.422516,106.807129 190.326080,105.618340 190.311523,104.452637 
	C190.179428,93.872841 189.145752,95.046860 200.005295,95.002335 
	C204.836807,94.982529 209.668442,94.998993 215.000015,94.998993 
z"/>
<path fill="#88EF04" opacity="1.000000" stroke="none" 
	d="
M262.999939,73.958641 
	C270.817871,73.958633 278.135834,73.958633 286.505768,73.958633 
	C286.505768,78.595978 286.838226,83.015030 286.267212,87.314087 
	C286.128052,88.361984 283.032684,89.714272 281.279083,89.740082 
	C267.618134,89.941170 253.952957,89.852501 240.289093,89.852646 
	C227.958282,89.852768 215.626724,89.778091 203.297180,89.902985 
	C200.173676,89.934631 198.666595,89.142700 198.902985,85.708557 
	C199.152924,82.077568 198.959076,78.416023 198.959076,73.958649 
	C220.341309,73.958649 241.420639,73.958649 262.999939,73.958641 
z"/>
</svg>